<svg width="40" height="40" viewBox="0 0 40 40" fill="none" xmlns="http://www.w3.org/2000/svg">
<path d="M20 40C31.0457 40 40 31.0457 40 20C40 8.9543 31.0457 0 20 0C8.9543 0 0 8.9543 0 20C0 31.0457 8.9543 40 20 40Z" fill="#DEE8FF"/>
<path d="M16.209 13.9999C16.6953 13.9917 17.1809 14.0424 17.655 14.1509C18.0544 14.2373 18.4338 14.3989 18.773 14.6269C19.0859 14.8541 19.3335 15.1597 19.491 15.5129C19.6719 15.9475 19.7591 16.4153 19.747 16.8859C19.7677 17.4025 19.6359 17.9137 19.368 18.3559C19.0856 18.7724 18.6958 19.1048 18.24 19.3179C18.8583 19.4865 19.3963 19.8701 19.757 20.3999C20.1039 20.9605 20.2778 21.6109 20.257 22.2699C20.2684 22.7955 20.1596 23.3167 19.939 23.7939C19.7349 24.21 19.4363 24.5727 19.067 24.8529C18.6872 25.1299 18.2598 25.335 17.806 25.4579C17.3351 25.5883 16.8486 25.6539 16.36 25.6529H11V13.9999H16.209ZM15.9 18.7119C16.2818 18.7276 16.6575 18.6133 16.966 18.3879C17.1137 18.2563 17.2286 18.092 17.3015 17.9082C17.3744 17.7243 17.4034 17.5259 17.386 17.3289C17.3964 17.0981 17.3507 16.8682 17.253 16.6589C17.1707 16.493 17.0427 16.3542 16.884 16.2589C16.7224 16.1544 16.5409 16.0846 16.351 16.0539C16.1455 16.0142 15.9363 15.9961 15.727 15.9999H13.43V18.7229H15.9V18.7119ZM16.033 23.6729C16.2648 23.6766 16.4961 23.6521 16.722 23.5999C16.929 23.5542 17.1253 23.4689 17.3 23.3489C17.4703 23.23 17.6079 23.0701 17.7 22.8839C17.8072 22.6465 17.8566 22.3871 17.844 22.1269C17.867 21.89 17.8356 21.6509 17.752 21.428C17.6685 21.2051 17.5351 21.0043 17.362 20.8409C16.9949 20.5707 16.5451 20.4371 16.09 20.4629H13.43V23.6729H16.033Z" fill="#0057FF"/>
<path d="M23.7261 23.6295C23.9168 23.8063 24.1414 23.9425 24.3864 24.0299C24.6314 24.1172 24.8915 24.1538 25.1511 24.1375C25.5625 24.1476 25.9659 24.0222 26.2991 23.7805C26.5712 23.6033 26.7769 23.341 26.8841 23.0345H28.8221C28.6155 23.9028 28.1114 24.6713 27.3971 25.2065C26.7115 25.6614 25.9014 25.8917 25.0791 25.8655C24.4921 25.8734 23.9096 25.7632 23.3661 25.5415C22.8744 25.3365 22.4335 25.0266 22.0741 24.6335C21.7161 24.2217 21.441 23.7447 21.2641 23.2285C21.0656 22.6515 20.9685 22.0446 20.9771 21.4345C20.9744 20.8342 21.0759 20.2381 21.2771 19.6725C21.5463 18.8772 22.0605 18.1876 22.7458 17.7026C23.4312 17.2175 24.2525 16.962 25.0921 16.9725C25.7129 16.9593 26.3269 17.1045 26.8761 17.3945C27.3718 17.6662 27.7996 18.0467 28.1271 18.5075C28.4622 18.9912 28.7025 19.5342 28.8351 20.1075C28.9806 20.7232 29.0325 21.3573 28.9891 21.9885H23.2131C23.1655 22.5813 23.3494 23.1694 23.7261 23.6295ZM26.2591 19.1985C26.0974 19.0368 25.9031 18.9117 25.689 18.8315C25.4749 18.7513 25.2461 18.7179 25.0181 18.7335C24.7154 18.7221 24.415 18.7892 24.1461 18.9285C23.9329 19.0459 23.7447 19.2039 23.5921 19.3935C23.4558 19.571 23.354 19.7725 23.2921 19.9875C23.2379 20.1668 23.2043 20.3516 23.1921 20.5385H26.7711C26.7396 20.0501 26.5611 19.5836 26.2591 19.1985Z" fill="#0057FF"/>
<path d="M27.212 14.7783H22.731V15.9243H27.212V14.7783Z" fill="#0057FF"/>
</svg>
