<svg width="41" height="40" viewBox="0 0 41 40" fill="none" xmlns="http://www.w3.org/2000/svg">
<g clip-path="url(#clip0_6965_61813)">
<path d="M20.6699 40C31.7156 40 40.6699 31.0457 40.6699 20C40.6699 8.9543 31.7156 0 20.6699 0C9.62423 0 0.669922 8.9543 0.669922 20C0.669922 31.0457 9.62423 40 20.6699 40Z" fill="#DEE8FF"/>
<path d="M22.384 26.655C22.2822 26.6754 22.1906 26.7305 22.1249 26.811C22.0593 26.8914 22.0236 26.9922 22.024 27.096V27.65C22.024 28.008 21.8817 28.3514 21.6286 28.6046C21.3754 28.8578 21.032 29 20.674 29C20.3159 29 19.9726 28.8578 19.7194 28.6046C19.4662 28.3514 19.324 28.008 19.324 27.65V27.195C19.324 27.0757 19.2766 26.9612 19.1922 26.8768C19.1078 26.7924 18.9933 26.745 18.874 26.745H17.974C17.6159 26.745 17.2726 26.6028 17.0194 26.3496C16.7662 26.0964 16.624 25.753 16.624 25.395C16.624 25.037 16.7662 24.6936 17.0194 24.4404C17.2726 24.1872 17.6159 24.045 17.974 24.045H21.638C21.8855 24.0456 22.1255 23.9599 22.3167 23.8027C22.5079 23.6455 22.6384 23.4266 22.6857 23.1837C22.7331 22.9407 22.6943 22.6889 22.5761 22.4714C22.4579 22.2539 22.2676 22.0844 22.038 21.992L18.326 20.507C17.5714 20.2102 16.9334 19.6768 16.5075 18.9867C16.0817 18.2967 15.891 17.4873 15.964 16.6797C16.037 15.8722 16.3697 15.11 16.9124 14.5075C17.4551 13.9051 18.1784 13.4947 18.974 13.338C19.0758 13.3176 19.1674 13.2625 19.233 13.182C19.2987 13.1016 19.3344 13.0008 19.334 12.897V12.35C19.334 11.992 19.4762 11.6486 19.7294 11.3954C19.9826 11.1422 20.3259 11 20.684 11C21.042 11 21.3854 11.1422 21.6386 11.3954C21.8917 11.6486 22.034 11.992 22.034 12.35V12.8C22.034 12.9193 22.0814 13.0338 22.1658 13.1182C22.2502 13.2026 22.3646 13.25 22.484 13.25H23.384C23.742 13.25 24.0854 13.3922 24.3386 13.6454C24.5917 13.8986 24.734 14.242 24.734 14.6C24.734 14.958 24.5917 15.3014 24.3386 15.5546C24.0854 15.8078 23.742 15.95 23.384 15.95H19.715C19.4675 15.9494 19.2275 16.0351 19.0363 16.1923C18.845 16.3495 18.7146 16.5684 18.6672 16.8113C18.6199 17.0543 18.6587 17.3061 18.7769 17.5236C18.8951 17.7411 19.0853 17.9106 19.315 18.003L23.027 19.488C23.7794 19.7861 24.4152 20.3196 24.8394 21.0089C25.2636 21.6981 25.4534 22.5061 25.3805 23.3122C25.3076 24.1182 24.9759 24.8791 24.4349 25.481C23.8939 26.083 23.1727 26.4938 22.379 26.652L22.384 26.655Z" fill="#0057FF"/>
</g>
<defs>
<clipPath id="clip0_6965_61813">
<rect width="40" height="40" fill="white" transform="translate(0.669922)"/>
</clipPath>
</defs>
</svg>
