<svg width="41" height="40" viewBox="0 0 41 40" fill="none" xmlns="http://www.w3.org/2000/svg">
<g clip-path="url(#clip0_6965_61740)">
<path d="M20.3398 40C31.3855 40 40.3398 31.0457 40.3398 20C40.3398 8.9543 31.3855 0 20.3398 0C9.29415 0 0.339844 8.9543 0.339844 20C0.339844 31.0457 9.29415 40 20.3398 40Z" fill="#DEE8FF"/>
<path d="M20.7842 13.333V17.777H25.2282L20.7842 13.333Z" fill="#0057FF"/>
<path d="M27.7994 22.0983L26.2414 20.5443C26.211 20.5129 26.1747 20.4879 26.1345 20.4707C26.0943 20.4535 26.0511 20.4446 26.0074 20.4443H25.9974C25.9027 20.4475 25.8129 20.4869 25.7464 20.5543L20.9364 25.3643C20.9046 25.3961 20.8812 25.4353 20.8684 25.4783L19.9684 28.1453C19.9374 28.2453 20.0924 28.3753 20.1804 28.3753H20.1964C20.2714 28.3583 22.4734 27.5913 22.8634 27.4753C22.9057 27.4626 22.9442 27.4396 22.9754 27.4083L27.7864 22.5923C27.8506 22.5293 27.8897 22.4451 27.8964 22.3553C27.8996 22.308 27.8926 22.2606 27.8759 22.2163C27.8592 22.1719 27.8331 22.1317 27.7994 22.0983ZM22.6434 26.9703C22.0594 27.1463 21.1764 27.5163 20.6744 27.6703L21.3674 25.7013L22.6434 26.9703Z" fill="#0057FF"/>
<path d="M20.3395 18.666C20.2218 18.666 20.1088 18.6192 20.0256 18.536C19.9423 18.4527 19.8955 18.3398 19.8955 18.222V13.333H15.0055C14.8878 13.333 14.7748 13.3798 14.6916 13.4631C14.6083 13.5463 14.5615 13.6593 14.5615 13.777V27.111C14.5615 27.2288 14.6083 27.3417 14.6916 27.425C14.7748 27.5082 14.8878 27.555 15.0055 27.555H19.0415L19.8615 25.133C19.9254 24.9288 20.0404 24.7443 20.1955 24.597L25.2315 19.609V18.666H20.3395Z" fill="#0057FF"/>
</g>
<defs>
<clipPath id="clip0_6965_61740">
<rect width="40" height="40" fill="white" transform="translate(0.339844)"/>
</clipPath>
</defs>
</svg>
