<svg width="40" height="40" viewBox="0 0 40 40" fill="none" xmlns="http://www.w3.org/2000/svg">
<g clip-path="url(#clip0_6965_61798)">
<path d="M20 40C31.0457 40 40 31.0457 40 20C40 8.9543 31.0457 0 20 0C8.9543 0 0 8.9543 0 20C0 31.0457 8.9543 40 20 40Z" fill="#DEE8FF"/>
<path d="M24.889 18.1108H24.445V17.2218C24.445 16.6382 24.33 16.0602 24.1067 15.521C23.8833 14.9818 23.5559 14.4918 23.1432 14.0791C22.7305 13.6664 22.2406 13.339 21.7013 13.1157C21.1621 12.8923 20.5842 12.7773 20.0005 12.7773C19.4168 12.7773 18.8389 12.8923 18.2997 13.1157C17.7604 13.339 17.2705 13.6664 16.8578 14.0791C16.445 14.4918 16.1177 14.9818 15.8943 15.521C15.671 16.0602 15.556 16.6382 15.556 17.2218V18.1108H15.111C15.0526 18.1108 14.9948 18.1224 14.9409 18.1447C14.8869 18.1671 14.8379 18.1999 14.7967 18.2412C14.7554 18.2826 14.7228 18.3316 14.7005 18.3856C14.6782 18.4396 14.6669 18.4975 14.667 18.5558V25.6668C14.667 25.7846 14.7138 25.8975 14.797 25.9808C14.8803 26.0641 14.9932 26.1108 15.111 26.1108H24.889C24.9473 26.1108 25.005 26.0994 25.0589 26.077C25.1128 26.0547 25.1617 26.022 25.2029 25.9808C25.2442 25.9396 25.2769 25.8906 25.2992 25.8368C25.3215 25.7829 25.333 25.7252 25.333 25.6668V18.5558C25.3331 18.4975 25.3217 18.4396 25.2995 18.3856C25.2772 18.3316 25.2445 18.2826 25.2033 18.2412C25.1621 18.1999 25.1131 18.1671 25.0591 18.1447C25.0052 18.1224 24.9474 18.1108 24.889 18.1108ZM17.334 17.2218C17.3271 16.8673 17.391 16.515 17.5219 16.1855C17.6529 15.856 17.8482 15.5558 18.0965 15.3027C18.3448 15.0496 18.641 14.8485 18.968 14.7112C19.2949 14.5739 19.6459 14.5032 20.0005 14.5032C20.3551 14.5032 20.7061 14.5739 21.033 14.7112C21.36 14.8485 21.6562 15.0496 21.9045 15.3027C22.1528 15.5558 22.3481 15.856 22.479 16.1855C22.61 16.515 22.6739 16.8673 22.667 17.2218V18.1108H17.334V17.2218ZM20.89 22.6538V23.8888C20.89 23.9472 20.8785 24.0049 20.8562 24.0588C20.8339 24.1126 20.8012 24.1616 20.7599 24.2028C20.7187 24.244 20.6698 24.2767 20.6159 24.299C20.562 24.3214 20.5043 24.3328 20.446 24.3328H19.556C19.4382 24.3328 19.3253 24.2861 19.242 24.2028C19.1588 24.1195 19.112 24.0066 19.112 23.8888V22.6538C18.9109 22.4738 18.7691 22.237 18.7055 21.9747C18.6419 21.7123 18.6595 21.4369 18.7558 21.1847C18.8522 20.9326 19.0228 20.7156 19.2452 20.5626C19.4675 20.4095 19.7311 20.3276 20.001 20.3276C20.2709 20.3276 20.5345 20.4095 20.7568 20.5626C20.9792 20.7156 21.1498 20.9326 21.2462 21.1847C21.3425 21.4369 21.3601 21.7123 21.2965 21.9747C21.2329 22.237 21.0911 22.4738 20.89 22.6538Z" fill="#0057FF"/>
</g>
<defs>
<clipPath id="clip0_6965_61798">
<rect width="40" height="40" fill="white"/>
</clipPath>
</defs>
</svg>
