<svg width="41" height="40" viewBox="0 0 41 40" fill="none" xmlns="http://www.w3.org/2000/svg">
<g clip-path="url(#clip0_6965_61825)">
<path d="M20.3398 40C31.3855 40 40.3398 31.0457 40.3398 20C40.3398 8.9543 31.3855 0 20.3398 0C9.29415 0 0.339844 8.9543 0.339844 20C0.339844 31.0457 9.29415 40 20.3398 40Z" fill="#DEE8FF"/>
<path d="M20.3391 28.8299C19.9616 28.8295 19.5926 28.7172 19.2788 28.5072C18.9651 28.2972 18.7206 27.999 18.5762 27.6501C18.4319 27.3012 18.3942 26.9174 18.4679 26.5471C18.5415 26.1768 18.7233 25.8367 18.9902 25.5697C19.2571 25.3026 19.5972 25.1207 19.9674 25.0468C20.3377 24.9729 20.7215 25.0104 21.0704 25.1546C21.4194 25.2988 21.7178 25.5431 21.9279 25.8568C22.1381 26.1704 22.2505 26.5393 22.2511 26.9169C22.2515 27.1681 22.2023 27.417 22.1064 27.6492C22.0105 27.8814 21.8697 28.0924 21.6921 28.2701C21.5144 28.4478 21.3035 28.5887 21.0714 28.6848C20.8392 28.7808 20.5904 28.8301 20.3391 28.8299ZM22.1321 20.8599C22.0224 20.8939 21.9272 20.9637 21.8618 21.0581C21.7963 21.1525 21.7644 21.2662 21.7711 21.3809V21.6669C21.7711 22.0468 21.6202 22.4112 21.3516 22.6798C21.0829 22.9484 20.7185 23.0994 20.3386 23.0994C19.9587 23.0994 19.5943 22.9484 19.3257 22.6798C19.057 22.4112 18.9061 22.0468 18.9061 21.6669V20.6169C18.9085 20.0713 19.0967 19.5428 19.4398 19.1185C19.7828 18.6942 20.2601 18.3995 20.7931 18.2829C21.1898 18.1977 21.5543 18.002 21.8445 17.7183C22.1346 17.4347 22.3385 17.0747 22.4326 16.68C22.5266 16.2853 22.5071 15.872 22.3761 15.488C22.2451 15.104 22.0081 14.7649 21.6924 14.5099C21.3768 14.255 20.9954 14.0946 20.5924 14.0474C20.1894 14.0001 19.7813 14.0679 19.4152 14.2429C19.0491 14.4179 18.7401 14.693 18.5238 15.0363C18.3076 15.3796 18.1929 15.7771 18.1931 16.1829C18.1931 16.5628 18.0422 16.9272 17.7736 17.1958C17.5049 17.4644 17.1405 17.6154 16.7606 17.6154C16.3807 17.6154 16.0163 17.4644 15.7477 17.1958C15.479 16.9272 15.3281 16.5628 15.3281 16.1829C15.3285 15.2695 15.5784 14.3735 16.0509 13.5918C16.5233 12.8101 17.2004 12.1724 18.0089 11.7474C18.8174 11.3225 19.7267 11.1265 20.6385 11.1807C21.5503 11.2349 22.4299 11.5372 23.1824 12.0549C23.935 12.5726 24.5317 13.286 24.9083 14.1182C25.2848 14.9503 25.4269 15.8696 25.3191 16.7766C25.2113 17.6836 24.8577 18.5439 24.2966 19.2646C23.7354 19.9853 22.988 20.539 22.1351 20.8659L22.1321 20.8599Z" fill="#0057FF"/>
</g>
<defs>
<clipPath id="clip0_6965_61825">
<rect width="40" height="40" fill="white" transform="translate(0.339844)"/>
</clipPath>
</defs>
</svg>
