<svg width="41" height="40" viewBox="0 0 41 40" fill="none" xmlns="http://www.w3.org/2000/svg">
<g clip-path="url(#clip0_6965_61725)">
<path d="M20.6699 40C31.7156 40 40.6699 31.0457 40.6699 20C40.6699 8.9543 31.7156 0 20.6699 0C9.62423 0 0.669922 8.9543 0.669922 20C0.669922 31.0457 9.62423 40 20.6699 40Z" fill="#DEE8FF"/>
<path d="M24.6353 21.0998C23.9953 21.0438 23.9843 20.5288 23.9843 19.8868C24.8114 18.9077 25.2939 17.6839 25.3573 16.4038C25.3573 14.2948 24.1573 12.8888 22.4293 12.8888C22.0184 12.8853 21.6118 12.9724 21.2383 13.1438C21.9955 13.59 22.6141 14.2375 23.0252 15.0143C23.4364 15.7911 23.624 16.6667 23.5673 17.5438C23.5347 18.7971 23.1628 20.0181 22.4913 21.0768C22.4596 21.1265 22.4398 21.183 22.4335 21.2417C22.4272 21.3004 22.4346 21.3597 22.455 21.4151C22.4754 21.4704 22.5084 21.5204 22.5513 21.5609C22.5942 21.6014 22.6458 21.6315 22.7023 21.6488C23.6289 21.8913 24.484 22.3523 25.1958 22.9933C25.9075 23.6343 26.4553 24.4365 26.7933 25.3328H28.2403C28.2911 25.3333 28.3415 25.3238 28.3887 25.3048C28.4358 25.2859 28.4788 25.2578 28.5151 25.2223C28.5514 25.1867 28.5804 25.1443 28.6003 25.0976C28.6202 25.0508 28.6308 25.0006 28.6313 24.9498C28.6313 24.9411 28.6313 24.9321 28.6313 24.9228C28.3753 22.1278 25.5113 21.1768 24.6353 21.0998Z" fill="#0057FF"/>
<path d="M25.5472 27.1113C25.6015 27.112 25.6555 27.1019 25.706 27.0817C25.7564 27.0615 25.8025 27.0316 25.8414 26.9936C25.8803 26.9556 25.9113 26.9104 25.9327 26.8604C25.9541 26.8104 25.9655 26.7567 25.9662 26.7023C25.9662 26.6923 25.9662 26.682 25.9662 26.6713C25.6902 23.6783 22.6212 22.6593 21.6832 22.5783C20.9972 22.5183 20.9832 21.9663 20.9832 21.2783C21.8709 20.2291 22.3888 18.917 22.4572 17.5443C22.4572 15.2853 21.1712 13.7783 19.3192 13.7783C17.4672 13.7783 16.1822 15.2853 16.1822 17.5453C16.2498 18.9173 16.7667 20.229 17.6532 21.2783C17.6532 21.9663 17.6422 22.5183 16.9532 22.5783C16.0172 22.6593 12.9482 23.6783 12.6712 26.6723C12.6646 26.7818 12.7018 26.8895 12.7745 26.9716C12.8473 27.0537 12.9496 27.1036 13.0592 27.1103H25.5472V27.1113Z" fill="#0057FF"/>
</g>
<defs>
<clipPath id="clip0_6965_61725">
<rect width="40" height="40" fill="white" transform="translate(0.669922)"/>
</clipPath>
</defs>
</svg>
