<svg width="17" height="22" viewBox="0 0 17 22" fill="none" xmlns="http://www.w3.org/2000/svg">
<path d="M8.63239 6.53379C7.80805 6.53379 6.53202 5.59065 5.18823 5.62474C3.41534 5.64747 1.78925 6.65878 0.874569 8.26097C-0.966079 11.4767 0.400292 16.2265 2.19577 18.84C3.07657 20.1126 4.11546 21.5444 5.49313 21.4989C6.81433 21.4421 7.31119 20.6354 8.9147 20.6354C10.5069 20.6354 10.9586 21.4989 12.3589 21.4649C13.7817 21.4421 14.6851 20.1695 15.5546 18.8854C16.5596 17.4082 16.9774 15.9765 17 15.897C16.9661 15.8856 14.2334 14.8288 14.1995 11.6472C14.1769 8.98821 16.3563 7.71555 16.458 7.65873C15.2158 5.82928 13.3074 5.62474 12.6412 5.57929C10.9021 5.44293 9.44544 6.53379 8.63239 6.53379ZM11.5684 3.8521C12.3024 2.96579 12.788 1.72721 12.6525 0.5C11.6023 0.545452 10.3375 1.20451 9.58095 2.09083C8.90341 2.87488 8.31621 4.13618 8.4743 5.34067C9.63741 5.43157 10.8344 4.73842 11.5684 3.8521Z" fill="#242424"/>
</svg>
