<svg width="170" height="66" viewBox="0 0 170 66" fill="none" xmlns="http://www.w3.org/2000/svg">
<path fill-rule="evenodd" clip-rule="evenodd" d="M43.3578 2.2782C49.7944 4.55679 54.9593 8.36835 58.8392 13.9739H57.0448C53.3956 8.70171 48.7653 6.23701 42.7114 4.09393C36.6576 1.95084 30.0804 1.76491 23.9146 3.56255C17.7487 5.36018 12.3078 9.04995 8.36496 14.1075C4.42211 19.1651 2.17791 25.3333 1.95125 31.7355C1.7246 38.1377 3.52701 44.4483 7.10237 49.7706C10.6777 55.0929 15.8442 59.1561 21.8676 61.3829C27.8909 63.6097 34.4649 63.8868 40.6552 62.1748C46.8455 60.4628 52.2762 56.8382 56.2892 51.8357L56.2893 51.8358V51.8357H169.434V53.5311H57.4654C53.2365 58.6005 47.5531 62.2665 41.1715 64.0314C34.5898 65.8517 27.6002 65.5571 21.196 63.1895C14.7917 60.8219 9.29863 56.5017 5.49719 50.8429C1.69576 45.1841 -0.220615 38.4745 0.020375 31.6675C0.261365 24.8605 2.64746 18.3023 6.83961 12.925C11.0318 7.54759 16.8167 3.62452 23.3724 1.71322C29.9281 -0.198082 36.9212 -0.000392437 43.3578 2.2782Z" fill="#EEEEEE"/>
<rect x="46.6553" y="31.8689" width="3.96668" height="18.6483" fill="#F1F6FF"/>
<path fill-rule="evenodd" clip-rule="evenodd" d="M56.289 23.5808V13.9741L8.87771 13.9741L8.87771 23.5808L27.7667 23.5808V45.3372C28.0119 45.0926 28.2526 44.8527 28.4886 44.6174C32.2372 40.881 34.8306 38.296 36.3589 35.9661C37.1548 34.7529 37.4 33.2884 37.4 31.8374V23.5808L56.289 23.5808Z" fill="#F1F6FF"/>
<path fill-rule="evenodd" clip-rule="evenodd" d="M170.001 35.0711V31.8689H165.279H161.312H156.59V35.0711L161.312 35.0711V50.5172H165.279V35.0711L170.001 35.0711Z" fill="#F1F6FF"/>
<path fill-rule="evenodd" clip-rule="evenodd" d="M151.867 31.869V35.0712L144.123 35.0712V39.592L151.301 39.592V42.7942L144.123 42.7942V50.5173H140.345V42.7942H140.345L140.345 39.592H140.345V35.0712H140.345L140.345 31.869L140.345 31.869H144.123H151.867Z" fill="#EEEEEE"/>
<path fill-rule="evenodd" clip-rule="evenodd" d="M55.5332 31.304L59.4999 35.2597L66.3 42.041V31.8691H70.2667V50.8941L66.3944 47.1245L66.3943 47.1268L66.3215 47.0535L66.3 47.0326V47.0319L59.4999 40.1911V50.4232H55.5332V31.304Z" fill="#F1F6FF"/>
<path fill-rule="evenodd" clip-rule="evenodd" d="M78.3895 50.5174H74.4229L83.8673 31.304L93.3118 50.5174H89.3451L87.834 47.3152H79.9006L78.3895 50.5174ZM83.867 39.027L81.2226 44.3013H86.5115L83.867 39.027Z" fill="#EEEEEE"/>
<path fill-rule="evenodd" clip-rule="evenodd" d="M125.045 50.894C131.096 50.894 136.001 46.5508 136.001 41.1931C136.001 35.8354 131.096 31.4922 125.045 31.4922C118.995 31.4922 114.09 35.8354 114.09 41.1931C114.09 46.5508 118.995 50.894 125.045 50.894ZM125.045 47.8802C129.01 47.8802 132.223 44.8863 132.223 41.1931C132.223 37.5 129.01 34.5061 125.045 34.5061C121.081 34.5061 117.868 37.5 117.868 41.1931C117.868 44.8863 121.081 47.8802 125.045 47.8802Z" fill="#EEEEEE"/>
<path d="M106.722 37.1432H110.5C110.122 33.3759 106.911 31.4922 103.133 31.4922C99.3556 31.4922 96.1444 33.8468 96.1444 36.6723C96.1444 39.4978 98.5999 41.8524 103.7 42.7942C108.8 43.7361 107.667 47.8801 103.7 47.8801C100.527 47.8801 99.6074 46.122 99.5444 45.243H95.7666C95.7666 48.0685 99.0722 50.894 103.228 50.894C107.383 50.894 111.067 48.6336 111.067 45.243C111.067 41.8524 107.95 40.3454 103.133 39.2152C98.3166 38.085 99.45 34.6944 103.133 34.6944C106.08 34.6944 106.754 36.3269 106.722 37.1432Z" fill="#EEEEEE"/>
<path d="M40.0442 43.2652C41.7528 38.928 39.6979 32.6225 38.4386 29.9854C38.4701 30.9586 39.3831 34.8829 35.322 39.3095C29.8223 45.3042 24.7441 48.4453 24.7441 53.1545C24.7441 57.2986 26.7275 60.7834 28.333 62.7612C27.9553 61.3485 27.2989 58.2438 28.9942 55.8858C32.5831 50.8941 37.9664 48.5395 40.0442 43.2652Z" fill="#EEEEEE"/>
<path d="M36.3604 50.0463C39.9495 46.8441 41.3345 42.4488 41.366 41.0989C41.5549 42.4802 41.8682 46.279 41.1771 49.1045C40.2327 52.966 37.9664 53.5311 33.622 57.8636C30.89 60.5879 30.4108 61.0658 30.2215 63.6088C29.8123 62.7925 28.4744 60.5236 29.1828 58.0519C29.9386 55.4148 32.2269 53.7344 36.3604 50.0463Z" fill="#EEEEEE"/>
</svg>
